<?xml version="1.0" standalone="no"?>
<!DOCTYPE svg PUBLIC "-//W3C//DTD SVG 20010904//EN"
 "http://www.w3.org/TR/2001/REC-SVG-20010904/DTD/svg10.dtd">
<svg version="1.0" xmlns="http://www.w3.org/2000/svg"
 width="192.000000pt" height="192.000000pt" viewBox="0 0 192.000000 192.000000"
 preserveAspectRatio="xMidYMid meet">

<g transform="translate(0.000000,192.000000) scale(0.100000,-0.100000)"
fill="#000000" stroke="none">
<path d="M730 1511 c0 -35 40 -71 77 -71 31 0 73 42 73 75 0 25 -1 25 -75 25
l-75 0 0 -29z"/>
<path d="M1306 718 c-2 -7 -16 -63 -30 -123 -32 -139 -55 -215 -63 -215 -4 0
-71 64 -150 141 l-142 142 -97 -92 c-89 -84 -114 -99 -114 -68 0 7 -16 46 -35
86 -25 52 -39 71 -46 64 -6 -6 -44 -62 -84 -124 -40 -63 -76 -114 -81 -114 -4
0 -25 25 -47 55 -21 30 -44 56 -50 58 -7 1 -29 -8 -48 -20 -66 -45 -154 -273
-176 -457 l-6 -51 822 0 821 0 0 30 c0 47 -49 267 -75 335 -24 65 -70 145 -83
145 -4 0 -17 -18 -30 -40 -12 -22 -26 -40 -30 -40 -4 1 -32 40 -62 88 -53 84
-163 212 -181 212 -6 0 -11 -6 -13 -12z"/>
</g>
</svg>
